<?xml version="1.0" ?><svg height="58px" version="1.1" viewBox="0 0 58 58" width="58px" xmlns="http://www.w3.org/2000/svg" xmlns:xlink="http://www.w3.org/1999/xlink"><title/><desc/><defs/><g fill="none" fill-rule="evenodd" id="Page-1" stroke="none" stroke-width="1"><g fill-rule="nonzero" id="009---Shuffle"><ellipse cx="29" cy="29" fill="#2C3E50" id="Oval" rx="29" ry="28.875"/><path d="M29,54.875 C14.7258624,54.8062083 3.20367241,43.1910968 3.24953355,28.9168671 C3.29539468,14.6426374 14.8919815,3.1018034 29.1662665,3.12473387 C43.4405514,3.14766433 54.9999997,14.7256966 55,29 C54.9494092,43.3181773 43.3182549,54.8934126 29,54.875 Z M29,5.125 C15.8304243,5.19376862 5.20363798,15.9134441 5.24948467,29.0831195 C5.29533136,42.2527949 15.9964946,52.898223 29.1662298,52.8752983 C42.3359651,52.8523737 53.0000025,42.1697552 53,29 C52.950323,15.7860145 42.2140648,5.10567421 29,5.125 Z" fill="#ECF0F1" id="Shape"/><path d="M40,35 L33,35 C29.1358754,34.9954924 26.0045076,31.8641246 26,28 C25.9951507,25.2405874 23.7594126,23.0048493 21,23 L13,23 C12.4477153,23 12,22.5522847 12,22 C12,21.4477153 12.4477153,21 13,21 L21,21 C24.8640584,21.004667 27.995333,24.1359416 28,28 C28.0032401,30.7600805 30.2399195,32.9967599 33,33 L40,33 C40.5522847,33 41,33.4477153 41,34 C41,34.5522847 40.5522847,35 40,35 Z" fill="#A5A5A4" id="Shape"/><path d="M21,35 L13,35 C12.4477153,35 12,34.5522847 12,34 C12,33.4477153 12.4477153,33 13,33 L21,33 C23.7600805,32.9967599 25.9967599,30.7600805 26,28 C26.0042162,24.1357545 29.1357545,21.0042162 33,21 L39,21 L39,19 C38.9999038,18.6396543 39.1937128,18.3071322 39.5072998,18.1296154 C39.8208869,17.9520986 40.2057353,17.9570516 40.51465,18.14258 L45.51465,21.14258 C45.8157865,21.3233199 46.0000327,21.6487877 46.0000327,22 C46.0000327,22.3512123 45.8157865,22.6766801 45.51465,22.85742 L40.51465,25.85742 C40.2057353,26.0429484 39.8208869,26.0479014 39.5072998,25.8703846 C39.1937128,25.6928678 38.9999038,25.3603457 39,25 L39,23 L33,23 C30.2404028,23.0044048 28.0044048,25.2404028 28,28 C27.9954924,31.8641246 24.8641246,34.9954924 21,35 Z M41,22 L41,23.23389 L43.05664,22 L41,20.76611 L41,22 Z" fill="#A5A5A4" id="Shape"/><path d="M40,38 C39.7347485,38.0001141 39.4803283,37.8947939 39.2927672,37.7072328 C39.1052061,37.5196717 38.9998859,37.2652515 39,37 L39,31 C38.9999038,30.6396543 39.1937128,30.3071322 39.5072998,30.1296154 C39.8208869,29.9520986 40.2057353,29.9570516 40.51465,30.14258 L45.51465,33.14258 C45.8157865,33.3233199 46.0000327,33.6487877 46.0000327,34 C46.0000327,34.3512123 45.8157865,34.6766801 45.51465,34.85742 L40.51465,37.85742 C40.3592297,37.9507978 40.1813143,38.000088 40,38 Z M41,32.76611 L41,35.23389 L43.05664,34 L41,32.76611 Z" fill="#A5A5A4" id="Shape"/></g></g></svg>